<?xml version="1.0" encoding="utf-8"?>
<!-- Generator: Adobe Illustrator 20.0.0, SVG Export Plug-In . SVG Version: 6.00 Build 0)  -->
<svg version="1.1" id="Calque_1" xmlns="http://www.w3.org/2000/svg" xmlns:xlink="http://www.w3.org/1999/xlink" x="0px" y="0px"
	 viewBox="0 0 25 25" style="enable-background:new 0 0 25 25;" xml:space="preserve">
<style type="text/css">
	.st0{fill:#E6322E;}
</style>
<g>
	<path id="facebook" class="st0" d="M10.5,19.1v-6.5H9.4v-2.2h1.1V8.3c0,0,0.1-2,2.2-2.3c0.7,0,2.9,0,2.9,0v2.2H14
		c0,0-0.6,0.2-0.6,0.6c0,0.4,0,1.6,0,1.6l1.9,0l-0.2,2.2h-1.7v6.5H10.5z"/>
	<path class="st0" d="M12.5,0C5.6,0,0,5.6,0,12.5C0,19.4,5.6,25,12.5,25S25,19.4,25,12.5C25,5.6,19.4,0,12.5,0z M12.5,22.9
		c-5.8,0-10.4-4.7-10.4-10.4c0-5.8,4.7-10.4,10.4-10.4c5.8,0,10.4,4.7,10.4,10.4C22.9,18.3,18.2,22.9,12.5,22.9z"/>
</g>
</svg>
