<?xml version="1.0" encoding="utf-8"?>
<!-- Generator: Adobe Illustrator 20.0.0, SVG Export Plug-In . SVG Version: 6.00 Build 0)  -->
<svg version="1.1" id="Calque_1" xmlns="http://www.w3.org/2000/svg" xmlns:xlink="http://www.w3.org/1999/xlink" x="0px" y="0px"
	 viewBox="0 0 25 25" style="enable-background:new 0 0 25 25;" xml:space="preserve">
<style type="text/css">
	.st0{fill:#FFFFFF;}
</style>
<g>
	<path class="st0" d="M25,12.5C25,5.6,19.4,0,12.5,0C5.6,0,0,5.6,0,12.5C0,19.4,5.6,25,12.5,25C19.4,25,25,19.4,25,12.5z M2.1,12.5
		c0-5.8,4.7-10.4,10.4-10.4c5.8,0,10.4,4.7,10.4,10.4c0,5.8-4.7,10.4-10.4,10.4C6.7,22.9,2.1,18.3,2.1,12.5z"/>
	<path class="st0" d="M13.3,17.6l5.9-5.9c0.4-0.4,0.2-1.1-0.2-1.5l-1.5-1.5c-0.4-0.4-0.9-0.4-1.3,0l-3.8,3.8L8.7,8.7
		c-0.4-0.4-0.9-0.4-1.3,0L6,10.2c-0.4,0.4-0.6,1.1-0.2,1.5l5.9,5.9C12.1,18,12.9,18,13.3,17.6z"/>
</g>
</svg>
