<?xml version="1.0" encoding="utf-8"?>
<!-- Generator: Adobe Illustrator 20.0.0, SVG Export Plug-In . SVG Version: 6.00 Build 0)  -->
<svg version="1.1" id="Calque_1" xmlns="http://www.w3.org/2000/svg" xmlns:xlink="http://www.w3.org/1999/xlink" x="0px" y="0px"
	 viewBox="0 0 25 25" style="enable-background:new 0 0 25 25;" xml:space="preserve">
<style type="text/css">
	.st0{fill:#3E4447;}
</style>
<g>
	<path class="st0" d="M0,12.5C0,19.4,5.6,25,12.5,25C19.4,25,25,19.4,25,12.5S19.4,0,12.5,0C5.6,0,0,5.6,0,12.5z M22.9,12.5
		c0,5.8-4.7,10.4-10.4,10.4c-5.8,0-10.4-4.7-10.4-10.4S6.7,2.1,12.5,2.1C18.3,2.1,22.9,6.7,22.9,12.5z"/>
	<path class="st0" d="M11.8,7.5l-5.9,5.9c-0.4,0.4-0.4,1.1,0,1.5l1.5,1.5c0.4,0.4,1.1,0.4,1.5,0l3.7-3.7l3.7,3.7
		c0.4,0.4,1.1,0.4,1.5,0l1.5-1.5c0.4-0.4,0.4-1.1,0-1.5l-5.9-5.9C12.8,7.1,12.2,7.1,11.8,7.5z"/>
</g>
</svg>
