<?xml version="1.0" encoding="utf-8"?>
<!-- Generator: Adobe Illustrator 20.0.0, SVG Export Plug-In . SVG Version: 6.00 Build 0)  -->
<svg version="1.1" id="Calque_1" xmlns="http://www.w3.org/2000/svg" xmlns:xlink="http://www.w3.org/1999/xlink" x="0px" y="0px"
	 viewBox="0 0 100 66.8" style="enable-background:new 0 0 100 66.8;" xml:space="preserve">
<style type="text/css">
	.st0{fill:#868686;}
	.st1{fill:#575756;}
	.st2{fill:#E63329;}
	.st3{fill:#FFFFFF;}
</style>
<g>
	<g>
		<g>
			<rect x="4.5" y="9" class="st0" width="95.4" height="57.8"/>
		</g>
		<polygon class="st1" points="4.5,8.9 4.5,50.8 76.6,49.3 91.2,34.6 92.8,9 		"/>
		<path class="st2" d="M90.1,0L23.3,0c-9.2,0-15,3.1-18.5,7.9C1.2,12.7,0,19.3,0,26.2v21.9c0,0.6,0.5,1.2,1.2,1.2h37.1h37.1h1.2
			c0,0,0.7-0.5,2.1-1.6c1.4-1.1,3.3-2.8,5.8-5.3c2.5-2.5,4.2-4.4,5.2-5.7c1-1.3,1.5-2,1.5-2v-1.2V17.3V1.2C91.2,0.5,90.7,0,90.1,0z"
			/>
		<g>
			<path class="st3" d="M33,35.9c0,0,0-0.1,0-0.1c0-1.5,0.3-3.9,0.8-6.4c4.4-0.1,12.5,0,12.5,0l1.1-4.7H34.7c0.6-3,1.2-5.4,1.2-5.4
				c0,0,0-0.1,0-0.1c4.6-0.4,16.2-0.2,16.2-0.2l1.2-5.3H38.7c-2.7,1-9.5,5.9-10.1,7.4c0,0-2,5.6-2.2,9.8c-0.5,10.1,9.3,11,9.3,11
				c6.9,0.8,11.5-0.9,11.5-0.9s0.9-3.9,1.2-5.1c-1,0.3-5.3,1.3-9.7,1.2C36,37.1,34.3,36.6,33,35.9z"/>
			<path class="st3" d="M62.2,19.2c4.6-0.4,16.2-0.2,16.2-0.2l1.2-5.3H65.1c-2.7,1-9.5,5.9-10.1,7.4c0,0-1,4.6-2.2,9.8
				c-1.2,5.2-2.9,10.6-2.9,10.6h7.5c0,0,0.6-4.2,1.9-10.1c0-0.2,0.1-0.3,0.1-0.5c4-0.2,12.1,0,12.1,0l1.1-4.7H60.4
				c1-3.9,1.8-7,1.8-7C62.2,19.3,62.2,19.2,62.2,19.2z"/>
		</g>
	</g>
	<path class="st3" d="M27,15.4C27,15.4,27,15.4,27,15.4c-0.9-1.1-4.1-3.4-7.1-4.6C16,12.1,10.1,16.7,4.9,23
		c-0.9,1.1-2.7,3.4-4.9,6.5v12h0c0,0,4.5-8.2,6.8-11.5c0.2-0.3,0.4-0.6,0.6-0.9c3.7,0.1,8.3,0.2,8.3,0.2l1.3-4.7c0,0-3-0.1-6-0.2
		c3.9-4.7,7.2-7,9.8-8.2c-1.4,5.9-5.4,22.6-5.7,25.3h6.6C22.1,39.2,26.7,18.7,27,15.4L27,15.4z"/>
</g>
<g>
	<path class="st3" d="M72,55.1h1.5l-1.2,5.5h-1.5L72,55.1z"/>
	<path class="st3" d="M79.3,55.1h1.4l-1.2,5.5h-1.6l-2.2-3.8h0l-0.8,3.8h-1.4l1.2-5.5h1.7l2.1,3.8h0L79.3,55.1z"/>
	<path class="st3" d="M81.8,55.1h4.9l-0.2,1h-3.4l-0.3,1.2H86l-0.2,1h-3.2l-0.5,2.2h-1.5L81.8,55.1z"/>
	<path class="st3" d="M90.6,55c3,0,3,1.8,2.8,2.9c-0.2,1.1-1.1,2.9-4,2.9c-3,0-3-1.8-2.8-2.9C86.8,56.7,87.6,55,90.6,55z M89.6,59.7
		c1.4,0,2-1,2.2-1.9C92,57,91.7,56,90.4,56c-1.4,0-2,1-2.2,1.9C88,58.7,88.2,59.7,89.6,59.7z"/>
</g>
</svg>
