<?xml version="1.0" encoding="utf-8"?>
<!-- Generator: Adobe Illustrator 20.0.0, SVG Export Plug-In . SVG Version: 6.00 Build 0)  -->
<svg version="1.1" id="Calque_1" xmlns="http://www.w3.org/2000/svg" xmlns:xlink="http://www.w3.org/1999/xlink" x="0px" y="0px"
	 viewBox="0 0 25 25" style="enable-background:new 0 0 25 25;" xml:space="preserve">
<style type="text/css">
	.st0{fill:#FFFFFF;}
</style>
<path class="st0" d="M24,8h-7V1.3C17,0.7,16.3,0,15.6,0H9.4C8.7,0,8,0.7,8,1.3V8H1.1C0.4,8,0,9,0,9.7v6.2C0,16.6,0.4,17,1.1,17H8
	v7.2C8,24.9,8.7,25,9.4,25h6.2c0.6,0,1.4-0.1,1.4-0.8V17h7c0.6,0,1-0.4,1-1.1V9.7C25,9,24.6,8,24,8z"/>
</svg>
