<?xml version="1.0" encoding="utf-8"?>
<!-- Generator: Adobe Illustrator 20.0.0, SVG Export Plug-In . SVG Version: 6.00 Build 0)  -->
<svg version="1.1" id="Calque_1" xmlns="http://www.w3.org/2000/svg" xmlns:xlink="http://www.w3.org/1999/xlink" x="0px" y="0px"
	 viewBox="0 0 25 18" style="enable-background:new 0 0 25 18;" xml:space="preserve">
<style type="text/css">
	.st0{fill:#3E4447;}
</style>
<path class="st0" d="M25,1.2C25,0.5,24.5,0,23.8,0H1.2C0.5,0,0,0.5,0,1.2v15.7C0,17.5,0.5,18,1.2,18h22.7c0.6,0,1.2-0.5,1.2-1.2V1.2
	z M8.6,9.5l3.1,2.6c0.5,0.5,1.2,0.2,1.7-0.2l3.1-2.3l5.5,6.3H3.1L8.6,9.5z M2,13.6V2.1l5.8,5.8L2,13.6z M17.2,7.8L23,2.1v11.5
	L17.2,7.8z M23,2V0.6L12.5,11L2,0.6V2H23z"/>
</svg>
