<?xml version="1.0" encoding="utf-8"?>
<!-- Generator: Adobe Illustrator 20.0.0, SVG Export Plug-In . SVG Version: 6.00 Build 0)  -->
<svg version="1.1" id="Calque_1" xmlns="http://www.w3.org/2000/svg" xmlns:xlink="http://www.w3.org/1999/xlink" x="0px" y="0px"
	 viewBox="0 0 25 25" style="enable-background:new 0 0 25 25;" xml:space="preserve">
<style type="text/css">
	.st0{fill:#3E4447;}
</style>
<g>
	<path class="st0" d="M3.7,21.3c4.9,4.9,12.8,4.9,17.7,0c4.9-4.9,4.9-12.8,0-17.7c-4.9-4.9-12.8-4.9-17.7,0
		C-1.2,8.5-1.2,16.4,3.7,21.3z M5.1,5.1c4.1-4.1,10.7-4.1,14.7,0c4.1,4.1,4.1,10.7,0,14.7c-4.1,4.1-10.7,4.1-14.7,0
		C1.1,15.8,1.1,9.2,5.1,5.1z"/>
	<path class="st0" d="M12.5,9.4c1.1,0,2.1-0.9,2.1-2.1s-0.9-2.1-2.1-2.1s-2.1,0.9-2.1,2.1S11.4,9.4,12.5,9.4z"/>
	<path class="st0" d="M12.5,19.8c1.1,0,2.5-0.9,2.5-2.1v-5.2c0-1.1-1.4-2.1-2.5-2.1c-1.1,0-2.5,0.9-2.5,2.1v5.2
		C10,18.8,11.4,19.8,12.5,19.8z"/>
</g>
</svg>
