<?xml version="1.0" encoding="utf-8"?>
<!-- Generator: Adobe Illustrator 20.0.0, SVG Export Plug-In . SVG Version: 6.00 Build 0)  -->
<svg version="1.1" id="Calque_1" xmlns="http://www.w3.org/2000/svg" xmlns:xlink="http://www.w3.org/1999/xlink" x="0px" y="0px"
	 viewBox="0 0 22 24" style="enable-background:new 0 0 22 24;" xml:space="preserve">
<style type="text/css">
	.st0{fill:#3E4447;}
</style>
<g>
	<path class="st0" d="M21,0H9H8L0,8v1v14c0,0.6,0.4,1,1,1h20c0.6,0,1-0.4,1-1V1C22,0.4,21.6,0,21,0z M8,2.5V8H2.5L8,2.5z M20,22H2V9
		h6c0.6,0,1-0.4,1-1V2h11V22z"/>
	<g>
		<rect x="5" y="18" class="st0" width="12" height="1"/>
		<rect x="5" y="16" class="st0" width="12" height="1"/>
		<rect x="5" y="14" class="st0" width="12" height="1"/>
		<rect x="5" y="12" class="st0" width="12" height="1"/>
		<rect x="5" y="10" class="st0" width="12" height="1"/>
		<rect x="10" y="8" class="st0" width="7" height="1"/>
		<rect x="10" y="6" class="st0" width="7" height="1"/>
	</g>
</g>
</svg>
